<svg xmlns="http://www.w3.org/2000/svg" viewBox="0 0 1280 720" role="img" aria-label="AI Camouflaged Object Detection cover image">
  <defs>
    <linearGradient id="bg" x1="0" y1="0" x2="1" y2="1">
      <stop offset="0%" stop-color="#0b1220"/>
      <stop offset="55%" stop-color="#162b39"/>
      <stop offset="100%" stop-color="#1d4f63"/>
    </linearGradient>
    <linearGradient id="panel" x1="0" y1="0" x2="0" y2="1">
      <stop offset="0%" stop-color="#0f172a" stop-opacity="0.88"/>
      <stop offset="100%" stop-color="#020617" stop-opacity="0.88"/>
    </linearGradient>
    <pattern id="camo" width="120" height="120" patternUnits="userSpaceOnUse">
      <rect width="120" height="120" fill="#365a47"/>
      <path d="M0 22 Q24 0 52 10 T112 18 V46 Q86 58 56 46 T0 42Z" fill="#4f7b5f"/>
      <path d="M12 64 Q44 46 74 58 T120 72 V106 Q86 118 52 108 T10 94Z" fill="#2e4a3c"/>
      <path d="M42 14 Q74 2 102 18 T120 46 Q94 52 70 46 T40 30Z" fill="#6b8f74" fill-opacity="0.72"/>
      <circle cx="22" cy="90" r="8" fill="#25382f"/>
      <circle cx="88" cy="74" r="10" fill="#5a8068"/>
    </pattern>
    <filter id="soft" x="-20%" y="-20%" width="140%" height="140%">
      <feGaussianBlur stdDeviation="2"/>
    </filter>
  </defs>

  <rect width="1280" height="720" fill="url(#bg)"/>

  <g opacity="0.14" stroke="#cbd5e1" stroke-width="1">
    <path d="M0 120 H1280 M0 240 H1280 M0 360 H1280 M0 480 H1280 M0 600 H1280"/>
    <path d="M160 0 V720 M320 0 V720 M480 0 V720 M640 0 V720 M800 0 V720 M960 0 V720 M1120 0 V720"/>
  </g>

  <rect x="110" y="92" width="720" height="436" rx="24" fill="url(#camo)" stroke="#9fb8a9" stroke-opacity="0.24"/>

  <path d="M180 184 C282 156 368 164 458 206 C546 248 610 252 704 222" fill="none" stroke="#cce6d4" stroke-opacity="0.18" stroke-width="18" filter="url(#soft)"/>

  <rect x="290" y="214" width="228" height="182" rx="12" fill="none" stroke="#22d3ee" stroke-width="4"/>
  <rect x="304" y="228" width="200" height="154" rx="8" fill="#0f172a" fill-opacity="0.22"/>
  <text x="304" y="207" font-family="Inter, Arial, sans-serif" font-size="22" fill="#67e8f9" font-weight="600">Detected Object</text>
  <text x="304" y="430" font-family="Inter, Arial, sans-serif" font-size="20" fill="#e2e8f0">confidence: 0.93</text>

  <rect x="860" y="118" width="312" height="448" rx="20" fill="url(#panel)" stroke="#22d3ee" stroke-opacity="0.36"/>
  <text x="892" y="170" font-family="Inter, Arial, sans-serif" font-size="28" fill="#f8fafc" font-weight="700">SINet Inference</text>

  <text x="892" y="216" font-family="Inter, Arial, sans-serif" font-size="20" fill="#bae6fd">Input: Camouflaged Scene</text>
  <rect x="892" y="232" width="248" height="8" rx="4" fill="#1e293b"/>
  <rect x="892" y="232" width="220" height="8" rx="4" fill="#22d3ee"/>

  <text x="892" y="286" font-family="Inter, Arial, sans-serif" font-size="20" fill="#bae6fd">Search Attention</text>
  <rect x="892" y="302" width="248" height="8" rx="4" fill="#1e293b"/>
  <rect x="892" y="302" width="190" height="8" rx="4" fill="#22d3ee"/>

  <text x="892" y="356" font-family="Inter, Arial, sans-serif" font-size="20" fill="#bae6fd">PDC + RF Blocks</text>
  <rect x="892" y="372" width="248" height="8" rx="4" fill="#1e293b"/>
  <rect x="892" y="372" width="206" height="8" rx="4" fill="#22d3ee"/>

  <text x="892" y="426" font-family="Inter, Arial, sans-serif" font-size="20" fill="#bae6fd">Output Mask</text>
  <rect x="892" y="442" width="248" height="8" rx="4" fill="#1e293b"/>
  <rect x="892" y="442" width="230" height="8" rx="4" fill="#22d3ee"/>

  <text x="120" y="620" font-family="Inter, Arial, sans-serif" font-size="48" fill="#f8fafc" font-weight="700">AI Camouflaged Object Detection System</text>
  <text x="120" y="666" font-family="Inter, Arial, sans-serif" font-size="27" fill="#bae6fd">Computer Vision | SINet | Attention-Guided Segmentation</text>
</svg>
